# Blender 5.2.2 LTS
# www.blender.org
o Cube
v 0.100000 0.100000 -1.000000
v 0.100000 -0.100000 -1.000000
v 0.100000 0.100000 1.000000
v 0.100000 -0.100000 1.000000
v -0.100000 0.100000 -1.000000
v -0.100000 -0.100000 -1.000000
v -0.100000 0.100000 1.000000
v -0.100000 -0.100000 1.000000
v 2.000000 0.100000 -0.900000
v 2.000000 -0.100000 -0.900000
v 0.000000 0.100000 -0.900000
v 0.000000 -0.100000 -0.900000
v 2.000000 0.100000 -1.100000
v 2.000000 -0.100000 -1.100000
v 0.000000 0.100000 -1.100000
v 0.000000 -0.100000 -1.100000
v -0.100000 2.000000 -0.900000
v 0.100000 2.000000 -0.900000
v -0.100000 0.000000 -0.900000
v 0.100000 0.000000 -0.900000
v -0.100000 2.000000 -1.100000
v 0.100000 2.000000 -1.100000
v -0.100000 0.000000 -1.100000
v 0.100000 0.000000 -1.100000
s 0
f 5 3 1
f 3 8 4
f 7 6 8
f 2 8 6
f 1 4 2
f 5 2 6
f 13 11 9
f 11 16 12
f 15 14 16
f 10 16 14
f 9 12 10
f 13 10 14
f 21 19 17
f 19 24 20
f 23 22 24
f 18 24 22
f 17 20 18
f 21 18 22
f 5 7 3
f 3 7 8
f 7 5 6
f 2 4 8
f 1 3 4
f 5 1 2
f 13 15 11
f 11 15 16
f 15 13 14
f 10 12 16
f 9 11 12
f 13 9 10
f 21 23 19
f 19 23 24
f 23 21 22
f 18 20 24
f 17 19 20
f 21 17 18
