# Blender 5.2.1 LTS
# www.blender.org
mtllib Spaceship.mtl
o Cube
v -0.698003 0.544891 3.546062
v -0.800000 -0.393750 6.000000
v -0.800000 0.800000 -1.300000
v -0.800000 -0.800000 -1.300000
v 0.698003 0.544891 3.546062
v 0.800000 -0.393750 6.000000
v 0.800000 0.800000 -1.300000
v 0.800000 -0.800000 -1.300000
v 5.000000 -0.100000 -0.800000
v 5.000000 -0.100000 0.800000
v 5.000000 0.150000 -0.800000
v 5.000000 0.150000 0.800000
v -5.000000 0.150000 0.800000
v -5.000000 -0.100000 0.800000
v -5.000000 0.150000 -0.800000
v -5.000000 -0.100000 -0.800000
v -1.000000 0.350000 1.000000
v -1.000000 -0.300000 1.000000
v -1.000000 0.350000 -1.000000
v -1.000000 -0.300000 -1.000000
v -1.000000 0.350000 1.000000
v -1.000000 -0.300000 1.000000
v -1.000000 0.350000 -1.000000
v -1.000000 -0.300000 -1.000000
v -1.000000 0.350000 1.000000
v -1.000000 -0.300000 1.000000
v -1.000000 0.350000 -1.000000
v -1.000000 -0.300000 -1.000000
v -1.000000 0.350000 1.000000
v -1.000000 -0.300000 1.000000
v -1.000000 0.350000 -1.000000
v -1.000000 -0.300000 -1.000000
v -1.000000 0.350000 1.000000
v -1.000000 -0.300000 1.000000
v -1.000000 0.350000 -1.000000
v -1.000000 -0.300000 -1.000000
v -1.000000 0.350000 1.000000
v -1.000000 -0.300000 1.000000
v -1.000000 0.350000 -1.000000
v -1.000000 -0.300000 -1.000000
v 1.000000 0.350000 -1.000000
v 1.000000 1.000000 -1.000000
v -1.000000 -0.300000 -1.000000
v -1.000000 -1.000000 -1.000000
v -1.000000 1.000000 -1.000000
v 1.000000 -1.000000 -1.000000
v 1.000000 -0.300000 -1.000000
v -1.000000 0.350000 -1.000000
v -1.000000 -1.000000 1.000000
v 1.000000 -1.000000 1.000000
v -1.000000 -0.300000 1.000000
v 1.000000 -0.300000 1.000000
v 1.000000 1.000000 1.000000
v -1.000000 1.000000 1.000000
v -1.000000 0.350000 1.000000
v 1.000000 0.350000 1.000000
v -1.000000 -1.000000 1.000000
v 1.000000 -1.000000 1.000000
v -1.000000 -0.300000 1.000000
v 1.000000 -0.300000 1.000000
v 0.736695 0.717798 2.578752
v -0.736695 0.717798 2.578752
v -1.000000 0.350000 1.000000
v 1.000000 0.350000 1.000000
v 1.000000 1.000000 1.000000
v -1.000000 1.000000 1.000000
v 0.800000 0.106250 6.000000
v -0.800000 0.106250 6.000000
v 0.566390 0.505315 3.411302
v -0.566390 0.505315 3.411302
v -0.594302 0.630045 2.713512
v 0.594302 0.630045 2.713512
v 0.698003 0.544891 3.546062
v -0.698003 0.544891 3.546062
v -0.736695 0.717798 2.578752
v 0.736695 0.717798 2.578752
v 5.200000 -0.200000 1.300000
v 5.000000 -0.100000 1.300000
v 5.000000 -0.200000 1.300000
v 5.000000 0.250000 1.300000
v 5.200000 0.250000 1.300000
v 5.200000 -0.200000 1.300000
v 5.000000 -0.200000 1.300000
v 5.200000 0.250000 1.300000
v 5.000000 -0.100000 1.300000
v 5.000000 0.250000 1.300000
v 5.200000 -0.200000 1.300000
v 5.000000 -0.200000 1.300000
v 5.200000 0.250000 1.300000
v 5.000000 -0.100000 1.300000
v 5.000000 0.250000 1.300000
v 5.200000 -0.200000 1.300000
v 5.000000 -0.200000 1.300000
v 5.200000 0.250000 1.300000
v 5.000000 -0.100000 1.300000
v 5.000000 0.250000 1.300000
s 0
f 53 45 54
f 3 8 4
f 42 56 41
f 49 46 50
f 54 48 55
f 67 2 6
f 51 44 49
f 47 50 46
f 48 20 19
f 13 16 14
f 55 19 17
f 51 17 18
f 43 18 20
f 21 18 17
f 24 19 20
f 22 20 18
f 23 17 19
f 25 22 21
f 28 23 24
f 26 24 22
f 27 21 23
f 29 26 25
f 32 27 28
f 30 28 26
f 31 25 27
f 33 30 29
f 36 31 32
f 34 32 30
f 35 29 31
f 37 34 33
f 40 35 36
f 38 36 34
f 39 33 35
f 14 37 13
f 15 40 16
f 16 38 14
f 13 39 15
f 12 52 10
f 10 47 9
f 9 41 11
f 11 56 12
f 7 41 47
f 3 42 7
f 8 44 4
f 4 43 48
f 58 49 50
f 57 51 49
f 60 50 52
f 66 53 54
f 59 55 51
f 64 52 56
f 63 54 55
f 65 56 53
f 2 58 6
f 68 63 59
f 60 64 67
f 62 74 75
f 61 66 62
f 1 67 5
f 1 66 68
f 5 65 61
f 69 71 70
f 5 76 73
f 1 73 74
f 61 75 76
f 70 73 69
f 71 74 70
f 72 73 76
f 71 76 75
f 10 11 12
f 53 42 45
f 3 7 8
f 42 53 56
f 49 44 46
f 54 45 48
f 67 68 2
f 51 43 44
f 47 52 50
f 48 43 20
f 13 15 16
f 55 48 19
f 51 55 17
f 43 51 18
f 21 22 18
f 24 23 19
f 22 24 20
f 23 21 17
f 25 26 22
f 28 27 23
f 26 28 24
f 27 25 21
f 29 30 26
f 32 31 27
f 30 32 28
f 31 29 25
f 33 34 30
f 36 35 31
f 34 36 32
f 35 33 29
f 37 38 34
f 40 39 35
f 38 40 36
f 39 37 33
f 14 38 37
f 15 39 40
f 16 40 38
f 13 37 39
f 12 56 52
f 10 52 47
f 9 47 41
f 11 41 56
f 46 8 7
f 7 42 41
f 47 46 7
f 3 45 42
f 8 46 44
f 45 3 4
f 4 44 43
f 48 45 4
f 58 57 49
f 57 59 51
f 60 58 50
f 66 65 53
f 59 63 55
f 64 60 52
f 63 66 54
f 65 64 56
f 2 57 58
f 57 2 68
f 68 66 63
f 59 57 68
f 67 6 58
f 67 58 60
f 64 65 67
f 62 1 74
f 61 65 66
f 1 68 67
f 1 62 66
f 5 67 65
f 69 72 71
f 5 61 76
f 1 5 73
f 61 62 75
f 70 74 73
f 71 75 74
f 72 69 73
f 71 72 76
f 10 9 11
l 82 87
l 88 83
l 84 89
l 90 85
l 86 91
l 87 92
l 93 88
l 89 94
l 95 90
l 91 96
l 92 77
l 79 93
l 94 81
l 78 95
l 96 80
