# Blender 5.2.1 LTS
# www.blender.org
o Utah_Teapot
v 2.337037 0.000000 2.233333
v 2.301828 -0.200000 2.177160
v 2.236443 -0.200000 2.072839
v 2.201234 0.000000 2.016666
v 2.840740 0.000000 2.116667
v 2.773205 -0.200000 2.075617
v 2.647783 -0.200000 1.999383
v 2.580247 0.000000 1.958333
v 3.000000 0.000000 1.800000
v 2.922222 -0.200000 1.800000
v 2.777778 -0.200000 1.800000
v 2.700000 0.000000 1.800000
v 1.629803 0.000000 2.247415
v 1.597604 -0.200000 2.190326
v 1.697555 -0.200000 2.081377
v 1.816837 0.000000 2.022012
v 1.536884 0.000000 2.314533
v 1.507437 -0.264841 2.218331
v 1.605203 -0.265387 1.991453
v 1.718703 0.000000 1.893229
v 2.301828 0.200000 2.177160
v 2.236443 0.200000 2.072839
v 2.773205 0.200000 2.075617
v 2.647783 0.200000 1.999383
v 2.922222 0.200000 1.800000
v 2.777778 0.200000 1.800000
v 1.597604 0.200000 2.190326
v 1.697555 0.200000 2.081377
v 1.507437 0.264841 2.218331
v 1.605203 0.265387 1.991453
v 2.874074 0.000000 1.363889
v 2.808138 -0.200000 1.403498
v 2.685688 -0.200000 1.477057
v 2.619753 0.000000 1.516667
v 2.514815 0.000000 0.961111
v 2.484728 -0.200000 1.018724
v 2.428852 -0.200000 1.125720
v 2.398765 0.000000 1.183333
v 2.129622 0.000000 0.992100
v 2.058923 -0.200000 0.878847
v 2.056161 -0.200000 0.866769
v 1.898123 -0.200000 0.660814
v 1.929069 0.000000 0.617074
v 1.969111 0.000000 1.060728
v 1.925589 -0.263419 0.919916
v 1.929285 -0.263912 0.900000
v 1.846655 -0.265958 0.635611
v 1.890801 0.000000 0.551342
v 2.808138 0.200000 1.403498
v 2.685688 0.200000 1.477057
v 2.484728 0.200000 1.018724
v 2.428852 0.200000 1.125720
v 2.058923 0.200000 0.878847
v 2.056161 0.200000 0.866769
v 1.898123 0.200000 0.660814
v 1.925589 0.263419 0.919916
v 1.929285 0.263912 0.900000
v 1.846655 0.265958 0.635611
v -2.800000 0.000000 2.400000
v -2.903703 -0.100000 2.400000
v -3.096296 -0.100000 2.400000
v -3.200000 0.000000 2.400000
v -2.847564 0.000000 2.444882
v -2.989081 -0.115825 2.449203
v -3.252793 -0.116319 2.456701
v -3.394943 0.000000 2.460574
v -2.795133 0.000000 2.448095
v -2.962821 -0.154492 2.449620
v -3.272782 -0.154739 2.452354
v -3.439235 0.000000 2.453906
v -2.700000 0.000000 2.400000
v -2.855555 -0.166667 2.400000
v -3.144444 -0.166667 2.400000
v -3.300000 0.000000 2.400000
v -2.903703 0.100000 2.400000
v -3.096296 0.100000 2.400000
v -2.989081 0.115825 2.449203
v -3.252793 0.116319 2.456701
v -2.962821 0.154492 2.449620
v -3.272782 0.154739 2.452354
v -2.855555 0.166667 2.400000
v -3.144444 0.166667 2.400000
v -2.464125 0.000000 2.013017
v -2.547092 -0.229746 1.964892
v -2.703721 -0.229746 1.875299
v -2.788760 0.000000 1.826840
v -2.270951 0.000000 1.610675
v -2.338361 -0.365243 1.475347
v -2.464824 -0.365243 1.223915
v -2.533269 0.000000 1.088420
v -1.973720 0.000000 1.514015
v -1.913481 -0.356780 1.326536
v -1.897989 -0.416814 1.293064
v -1.941864 -0.416359 0.943553
v -1.973547 -0.321145 0.915980
v -2.024337 0.000000 0.790110
v -1.837770 0.000000 1.568586
v -1.795846 -0.424009 1.371118
v -1.783887 -0.491340 1.339469
v -1.859118 -0.500925 0.934651
v -1.895291 -0.390778 0.900000
v -1.951957 0.000000 0.757952
v -2.547092 0.229746 1.964892
v -2.703721 0.229746 1.875299
v -2.338361 0.365243 1.475347
v -2.464824 0.365243 1.223915
v -1.913481 0.356780 1.326536
v -1.897989 0.416814 1.293064
v -1.941864 0.416359 0.943553
v -1.973547 0.321145 0.915980
v -1.795846 0.424009 1.371118
v -1.783887 0.491340 1.339469
v -1.859118 0.500925 0.934651
v -1.895291 0.390778 0.900000
v 0.000000 0.000000 3.150000
v 0.359259 0.000000 3.063889
v 0.311128 -0.179630 3.063889
v 0.179630 -0.311128 3.063889
v -0.000000 -0.359259 3.063889
v 0.229630 0.000000 2.877778
v 0.198865 -0.114815 2.877778
v 0.114815 -0.198865 2.877778
v -0.000000 -0.229630 2.877778
v 0.200000 0.000000 2.700000
v 0.173205 -0.100000 2.700000
v 0.100000 -0.173205 2.700000
v -0.000000 -0.200000 2.700000
v -0.179630 -0.311128 3.063889
v -0.311128 -0.179630 3.063889
v -0.359259 0.000000 3.063889
v -0.114815 -0.198865 2.877778
v -0.198865 -0.114815 2.877778
v -0.229630 0.000000 2.877778
v -0.100000 -0.173205 2.700000
v -0.173205 -0.100000 2.700000
v -0.200000 0.000000 2.700000
v 0.000000 0.359259 3.063889
v -0.179630 0.311128 3.063889
v -0.311128 0.179630 3.063889
v 0.000000 0.229630 2.877778
v -0.114815 0.198865 2.877778
v -0.198865 0.114815 2.877778
v 0.000000 0.200000 2.700000
v -0.100000 0.173205 2.700000
v -0.173205 0.100000 2.700000
v 0.311128 0.179630 3.063889
v 0.179630 0.311128 3.063889
v 0.198865 0.114815 2.877778
v 0.114815 0.198865 2.877778
v 0.173205 0.100000 2.700000
v 0.100000 0.173205 2.700000
v 0.581482 0.000000 2.594444
v 0.503578 -0.290741 2.594444
v 0.290741 -0.503578 2.594444
v -0.000000 -0.581482 2.594444
v 1.062963 0.000000 2.513889
v 0.920553 -0.531482 2.513889
v 0.531482 -0.920553 2.513889
v -0.000000 -1.062963 2.513889
v 1.300000 0.000000 2.400000
v 1.125833 -0.650000 2.400000
v 0.650000 -1.125833 2.400000
v -0.000000 -1.300000 2.400000
v -0.290741 -0.503578 2.594444
v -0.503578 -0.290741 2.594444
v -0.581482 0.000000 2.594444
v -0.531482 -0.920553 2.513889
v -0.920553 -0.531482 2.513889
v -1.062963 0.000000 2.513889
v -0.650000 -1.125833 2.400000
v -1.125833 -0.650000 2.400000
v -1.300000 0.000000 2.400000
v 0.000000 0.581482 2.594444
v -0.290741 0.503578 2.594444
v -0.503578 0.290741 2.594444
v 0.000000 1.062963 2.513889
v -0.531482 0.920553 2.513889
v -0.920553 0.531482 2.513889
v 0.000000 1.300000 2.400000
v -0.650000 1.125833 2.400000
v -1.125833 0.650000 2.400000
v 0.503578 0.290741 2.594444
v 0.290741 0.503578 2.594444
v 0.920553 0.531482 2.513889
v 0.531482 0.920553 2.513889
v 1.125833 0.650000 2.400000
v 0.650000 1.125833 2.400000
v 1.400000 0.000000 2.400000
v 1.212435 -0.700000 2.400000
v 0.700000 -1.212436 2.400000
v -0.000000 -1.400000 2.400000
v 1.388381 0.000000 2.488604
v 1.202373 -0.694191 2.488604
v 0.694191 -1.202373 2.488604
v -0.000000 -1.388381 2.488604
v 1.440652 0.000000 2.489708
v 1.247641 -0.720326 2.489708
v 0.720326 -1.247641 2.489708
v -0.000000 -1.440652 2.489708
v 1.500000 0.000000 2.400000
v 1.299038 -0.750000 2.400000
v 0.750000 -1.299038 2.400000
v -0.000000 -1.500000 2.400000
v -0.700000 -1.212435 2.400000
v -1.212436 -0.700000 2.400000
v -1.400000 0.000000 2.400000
v -0.694191 -1.202373 2.488604
v -1.202373 -0.694191 2.488604
v -1.388381 0.000000 2.488604
v -0.720326 -1.247641 2.489708
v -1.247641 -0.720326 2.489708
v -1.440652 0.000000 2.489708
v -0.750000 -1.299038 2.400000
v -1.299038 -0.750000 2.400000
v -1.500000 0.000000 2.400000
v 0.000000 1.400000 2.400000
v -0.700000 1.212435 2.400000
v -1.212436 0.700000 2.400000
v 0.000000 1.388381 2.488604
v -0.694191 1.202373 2.488604
v -1.202373 0.694191 2.488604
v 0.000000 1.440652 2.489708
v -0.720326 1.247641 2.489708
v -1.247641 0.720326 2.489708
v 0.000000 1.500000 2.400000
v -0.750000 1.299038 2.400000
v -1.299038 0.750000 2.400000
v 1.212435 0.700000 2.400000
v 0.700000 1.212436 2.400000
v 1.202373 0.694191 2.488604
v 0.694191 1.202373 2.488604
v 1.247641 0.720326 2.489708
v 0.720326 1.247641 2.489708
v 1.299038 0.750000 2.400000
v 0.750000 1.299038 2.400000
v 1.726324 0.000000 1.875570
v 1.495040 -0.863162 1.875570
v 0.863162 -1.495040 1.875570
v -0.000000 -1.726324 1.875570
v 1.909458 0.000000 1.371118
v 1.653639 -0.954729 1.371118
v 0.954729 -1.653639 1.371118
v -0.000000 -1.909458 1.371118
v 1.732051 -1.000000 0.900000
v 1.000000 -1.732051 0.900000
v -0.000000 -2.000000 0.900000
v -0.863162 -1.495040 1.875570
v -1.495040 -0.863162 1.875570
v -1.726324 0.000000 1.875570
v -0.954729 -1.653639 1.371118
v -1.653639 -0.954729 1.371118
v -1.000000 -1.732051 0.900000
v -1.732051 -1.000000 0.900000
v 0.000000 1.726324 1.875570
v -0.863162 1.495040 1.875570
v -1.495040 0.863162 1.875570
v 0.000000 1.909458 1.371118
v -0.954729 1.653639 1.371118
v -1.653639 0.954729 1.371118
v 0.000000 2.000000 0.900000
v -1.000000 1.732051 0.900000
v -1.732051 1.000000 0.900000
v 1.495040 0.863162 1.875570
v 0.863162 1.495040 1.875570
v 1.653639 0.954729 1.371118
v 0.954729 1.653639 1.371118
v 1.732051 1.000000 0.900000
v 1.000000 1.732051 0.900000
v 1.882716 0.000000 0.522222
v 1.630479 -0.941358 0.522222
v 0.941358 -1.630480 0.522222
v -0.000000 -1.882716 0.522222
v 1.635802 0.000000 0.277778
v 1.416646 -0.817901 0.277778
v 0.817901 -1.416646 0.277778
v -0.000000 -1.635802 0.277778
v 1.500000 0.000000 0.150000
v 1.299038 -0.750000 0.150000
v 0.750000 -1.299038 0.150000
v -0.000000 -1.500000 0.150000
v -0.941358 -1.630479 0.522222
v -1.630480 -0.941358 0.522222
v -1.882716 0.000000 0.522222
v -0.817901 -1.416646 0.277778
v -1.416646 -0.817901 0.277778
v -1.635802 0.000000 0.277778
v -0.750000 -1.299038 0.150000
v -1.299038 -0.750000 0.150000
v -1.500000 0.000000 0.150000
v 0.000000 1.882716 0.522222
v -0.941358 1.630479 0.522222
v -1.630480 0.941358 0.522222
v 0.000000 1.635802 0.277778
v -0.817901 1.416646 0.277778
v -1.416646 0.817901 0.277778
v 0.000000 1.500000 0.150000
v -0.750000 1.299038 0.150000
v -1.299038 0.750000 0.150000
v 1.630479 0.941358 0.522222
v 0.941358 1.630480 0.522222
v 1.416646 0.817901 0.277778
v 0.817901 1.416646 0.277778
v 1.299038 0.750000 0.150000
v 0.750000 1.299038 0.150000
v 1.427778 0.000000 0.077778
v 1.236492 -0.713889 0.077778
v 0.713889 -1.236492 0.077778
v -0.000000 -1.427778 0.077778
v 1.022222 0.000000 0.022222
v 0.885270 -0.511111 0.022222
v 0.511111 -0.885270 0.022222
v -0.000000 -1.022222 0.022222
v 0.000000 0.000000 0.000000
v -0.713889 -1.236492 0.077778
v -1.236492 -0.713889 0.077778
v -1.427778 0.000000 0.077778
v -0.511111 -0.885270 0.022222
v -0.885270 -0.511111 0.022222
v -1.022222 0.000000 0.022222
v 0.000000 1.427778 0.077778
v -0.713889 1.236492 0.077778
v -1.236492 0.713889 0.077778
v 0.000000 1.022222 0.022222
v -0.511111 0.885270 0.022222
v -0.885270 0.511111 0.022222
v 1.236492 0.713889 0.077778
v 0.713889 1.236492 0.077778
v 0.885270 0.511111 0.022222
v 0.511111 0.885270 0.022222
v -2.311105 0.000000 1.514838
v -2.358102 -0.224157 1.425978
v -2.444301 -0.223910 1.261271
v -2.490464 0.000000 1.172719
v -2.511121 0.000000 1.964368
v -2.570537 -0.147869 1.935018
v -2.678715 -0.147376 1.881148
v -2.736462 0.000000 1.852414
v -2.800000 0.000000 2.400000
v -3.200000 0.000000 2.400000
v -1.909074 0.000000 1.365294
v -1.877147 -0.166290 1.265941
v -1.849883 -0.254926 1.208931
v -1.873148 -0.254674 0.968758
v -1.890808 -0.206210 0.952611
v -1.909810 0.000000 0.854362
v -1.771014 0.000000 1.419294
v -1.762099 -0.213239 1.284304
v -1.747111 -0.323082 1.215569
v -1.809045 -0.318937 0.926152
v -1.830968 -0.257630 0.900000
v -1.851815 0.000000 0.768054
v -2.358102 0.224157 1.425978
v -2.444301 0.223910 1.261271
v -2.570537 0.147869 1.935018
v -2.678715 0.147376 1.881148
v -2.903703 0.100000 2.400000
v -3.096296 0.100000 2.400000
v -1.877147 0.166290 1.265941
v -1.849883 0.254926 1.208931
v -1.873148 0.254674 0.968758
v -1.890808 0.206210 0.952611
v -1.762099 0.213239 1.284304
v -1.747111 0.323082 1.215569
v -1.809045 0.318937 0.926152
v -1.830968 0.257630 0.900000
v 0.000000 0.000000 0.180000
v 0.621475 0.000000 0.183536
v 0.538213 -0.310737 0.183536
v 0.310737 -0.538213 0.183536
v -0.000000 -0.621475 0.183536
v 0.976283 0.000000 0.197071
v 0.845486 -0.488141 0.197071
v 0.488141 -0.845486 0.197071
v -0.000000 -0.976283 0.197071
v 1.200000 0.000000 0.225000
v 1.039230 -0.600000 0.225000
v 0.600000 -1.039231 0.225000
v -0.000000 -1.200000 0.225000
v -0.310737 -0.538213 0.183536
v -0.538213 -0.310737 0.183536
v -0.621475 0.000000 0.183536
v -0.488141 -0.845486 0.197071
v -0.845486 -0.488141 0.197071
v -0.976283 0.000000 0.197071
v -0.600000 -1.039230 0.225000
v -1.039231 -0.600000 0.225000
v -1.200000 0.000000 0.225000
v 0.000000 0.621475 0.183536
v -0.310737 0.538213 0.183536
v -0.538213 0.310737 0.183536
v 0.000000 0.976283 0.197071
v -0.488141 0.845486 0.197071
v -0.845486 0.488141 0.197071
v 0.000000 1.200000 0.225000
v -0.600000 1.039230 0.225000
v -1.039231 0.600000 0.225000
v 0.538213 0.310737 0.183536
v 0.310737 0.538213 0.183536
v 0.845486 0.488141 0.197071
v 0.488141 0.845486 0.197071
v 1.039230 0.600000 0.225000
v 0.600000 1.039231 0.225000
v 1.477892 0.000000 0.329596
v 1.279892 -0.738946 0.329596
v 0.738946 -1.279892 0.329596
v -0.000000 -1.477892 0.329596
v 1.775764 0.000000 0.559798
v 1.537857 -0.887882 0.559798
v 0.887882 -1.537857 0.559798
v -0.000000 -1.775764 0.559798
v 1.900000 0.000000 0.900000
v 1.645448 -0.950000 0.900000
v 0.950000 -1.645448 0.900000
v -0.000000 -1.900000 0.900000
v -0.738946 -1.279892 0.329596
v -1.279892 -0.738946 0.329596
v -1.477892 0.000000 0.329596
v -0.887882 -1.537857 0.559798
v -1.537857 -0.887882 0.559798
v -1.775764 0.000000 0.559798
v -0.950000 -1.645448 0.900000
v -1.645448 -0.950000 0.900000
v 0.000000 1.477892 0.329596
v -0.738946 1.279892 0.329596
v -1.279892 0.738946 0.329596
v 0.000000 1.775764 0.559798
v -0.887882 1.537857 0.559798
v -1.537857 0.887882 0.559798
v 0.000000 1.900000 0.900000
v -0.950000 1.645448 0.900000
v -1.645448 0.950000 0.900000
v 1.279892 0.738946 0.329596
v 0.738946 1.279892 0.329596
v 1.537857 0.887882 0.559798
v 0.887882 1.537857 0.559798
v 1.645448 0.950000 0.900000
v 0.950000 1.645448 0.900000
v 1.819236 0.000000 1.284304
v 1.575504 -0.909618 1.284304
v 0.909618 -1.575505 1.284304
v -0.000000 -1.819236 1.284304
v 1.667664 0.000000 1.708608
v 1.444239 -0.833832 1.708608
v 0.833832 -1.444239 1.708608
v -0.000000 -1.667664 1.708608
v 1.500000 0.000000 2.160000
v 1.299038 -0.750000 2.160000
v 0.750000 -1.299038 2.160000
v -0.000000 -1.500000 2.160000
v -0.909618 -1.575504 1.284304
v -1.575505 -0.909618 1.284304
v -0.833832 -1.444239 1.708608
v -1.444239 -0.833832 1.708608
v -1.667664 0.000000 1.708608
v -0.750000 -1.299038 2.160000
v -1.299038 -0.750000 2.160000
v -1.500000 0.000000 2.160000
v 0.000000 1.819236 1.284304
v -0.909618 1.575504 1.284304
v -1.575505 0.909618 1.284304
v 0.000000 1.667664 1.708608
v -0.833832 1.444239 1.708608
v -1.444239 0.833832 1.708608
v 0.000000 1.500000 2.160000
v -0.750000 1.299038 2.160000
v -1.299038 0.750000 2.160000
v 1.575504 0.909618 1.284304
v 0.909618 1.575505 1.284304
v 1.444239 0.833832 1.708608
v 0.833832 1.444239 1.708608
v 1.299038 0.750000 2.160000
v 0.750000 1.299038 2.160000
v 1.402605 0.000000 2.278059
v 1.214692 -0.701303 2.278059
v 0.701303 -1.214692 2.278059
v -0.000000 -1.402605 2.278059
v 1.263525 0.000000 2.309030
v 1.094245 -0.631763 2.309030
v 0.631762 -1.094245 2.309029
v -0.000000 -1.263525 2.309030
v 1.200000 0.000000 2.340000
v 1.039230 -0.600000 2.340000
v 0.600000 -1.039231 2.340000
v -0.000000 -1.200000 2.340000
v -0.701303 -1.214692 2.278059
v -1.214692 -0.701303 2.278059
v -1.402605 0.000000 2.278059
v -0.631763 -1.094245 2.309030
v -1.094245 -0.631762 2.309029
v -1.263525 0.000000 2.309030
v -0.600000 -1.039230 2.340000
v -1.039231 -0.600000 2.340000
v -1.200000 0.000000 2.340000
v 0.000000 1.402605 2.278059
v -0.701303 1.214692 2.278059
v -1.214692 0.701303 2.278059
v 0.000000 1.263525 2.309030
v -0.631763 1.094245 2.309030
v -1.094245 0.631762 2.309029
v 0.000000 1.200000 2.340000
v -0.600000 1.039230 2.340000
v -1.039231 0.600000 2.340000
v 1.214692 0.701303 2.278059
v 0.701303 1.214692 2.278059
v 1.094245 0.631763 2.309030
v 0.631762 1.094245 2.309029
v 1.039230 0.600000 2.340000
v 0.600000 1.039231 2.340000
v 1.235555 0.000000 2.382222
v 1.070022 -0.617778 2.382222
v 0.617778 -1.070022 2.382222
v -0.000000 -1.235555 2.382222
v 1.306667 0.000000 2.397778
v 1.131607 -0.653333 2.397778
v 0.653333 -1.131607 2.397778
v -0.000000 -1.306667 2.397778
v -0.617778 -1.070022 2.382222
v -1.070022 -0.617778 2.382222
v -1.235555 0.000000 2.382222
v -0.653333 -1.131607 2.397778
v -1.131607 -0.653333 2.397778
v -1.306667 0.000000 2.397778
v 0.000000 1.235555 2.382222
v -0.617778 1.070022 2.382222
v -1.070022 0.617778 2.382222
v 0.000000 1.306667 2.397778
v -0.653333 1.131607 2.397778
v -1.131607 0.653333 2.397778
v 1.070022 0.617778 2.382222
v 0.617778 1.070022 2.382222
v 1.131607 0.653333 2.397778
v 0.653333 1.131607 2.397778
v 1.205555 0.000000 2.380555
v 1.044042 -0.602778 2.380555
v 0.602778 -1.044042 2.380555
v -0.000000 -1.205555 2.380555
v 1.177778 0.000000 2.344444
v 1.019985 -0.588889 2.344444
v 0.588889 -1.019985 2.344444
v -0.000000 -1.177778 2.344444
v 1.150000 0.000000 2.325000
v 0.995929 -0.575000 2.325000
v 0.575000 -0.995929 2.325000
v -0.000000 -1.150000 2.325000
v -0.602778 -1.044042 2.380555
v -1.044042 -0.602778 2.380555
v -1.205555 0.000000 2.380555
v -0.588889 -1.019985 2.344444
v -1.019985 -0.588889 2.344444
v -1.177778 0.000000 2.344444
v -0.575000 -0.995929 2.325000
v -0.995929 -0.575000 2.325000
v -1.150000 0.000000 2.325000
v 0.000000 1.205555 2.380555
v -0.602778 1.044042 2.380555
v -1.044042 0.602778 2.380555
v 0.000000 1.177778 2.344444
v -0.588889 1.019985 2.344444
v -1.019985 0.588889 2.344444
v 0.000000 1.150000 2.325000
v -0.575000 0.995929 2.325000
v -0.995929 0.575000 2.325000
v 1.044042 0.602778 2.380555
v 0.602778 1.044042 2.380555
v 1.019985 0.588889 2.344444
v 0.588889 1.019985 2.344444
v 0.995929 0.575000 2.325000
v 0.575000 0.995929 2.325000
v 1.120987 0.000000 2.347870
v 0.970804 -0.560494 2.347870
v 0.560494 -0.970804 2.347870
v -0.000000 -1.120987 2.347870
v 1.080864 0.000000 2.394074
v 0.936056 -0.540432 2.394074
v 0.540432 -0.936056 2.394074
v -0.000000 -1.080864 2.394074
v 0.950000 0.000000 2.430000
v 0.822724 -0.475000 2.430000
v 0.475000 -0.822724 2.430000
v -0.000000 -0.950000 2.430000
v -0.560494 -0.970804 2.347870
v -0.970804 -0.560494 2.347870
v -1.120987 0.000000 2.347870
v -0.540432 -0.936056 2.394074
v -0.936056 -0.540432 2.394074
v -1.080864 0.000000 2.394074
v -0.475000 -0.822724 2.430000
v -0.822724 -0.475000 2.430000
v -0.950000 0.000000 2.430000
v 0.000000 1.120987 2.347870
v -0.560494 0.970804 2.347870
v -0.970804 0.560494 2.347870
v 0.000000 1.080864 2.394074
v -0.540432 0.936056 2.394074
v -0.936056 0.540432 2.394074
v 0.000000 0.950000 2.430000
v -0.475000 0.822724 2.430000
v -0.822724 0.475000 2.430000
v 0.970804 0.560494 2.347870
v 0.560494 0.970804 2.347870
v 0.936056 0.540432 2.394074
v 0.540432 0.936056 2.394074
v 0.822724 0.475000 2.430000
v 0.475000 0.822724 2.430000
v 0.713580 0.000000 2.462037
v 0.617979 -0.356790 2.462037
v 0.356790 -0.617979 2.462037
v -0.000000 -0.713580 2.462037
v 0.401235 0.000000 2.501018
v 0.347479 -0.200617 2.501018
v 0.200617 -0.347479 2.501018
v -0.000000 -0.401235 2.501018
v 0.000000 0.000000 2.520000
v -0.356790 -0.617979 2.462037
v -0.617979 -0.356790 2.462037
v -0.713580 0.000000 2.462037
v -0.200617 -0.347479 2.501018
v -0.347479 -0.200617 2.501018
v -0.401235 0.000000 2.501018
v 0.000000 0.713580 2.462037
v -0.356790 0.617979 2.462037
v -0.617979 0.356790 2.462037
v 0.000000 0.401235 2.501018
v -0.200617 0.347479 2.501018
v -0.347479 0.200617 2.501018
v 0.617979 0.356790 2.462037
v 0.356790 0.617979 2.462037
v 0.347479 0.200617 2.501018
v 0.200617 0.347479 2.501018
s 1
f 2 5 1
f 5 2 6
f 3 6 2
f 6 3 7
f 4 7 3
f 7 4 8
f 6 9 5
f 9 6 10
f 7 10 6
f 10 7 11
f 8 11 7
f 11 8 12
f 13 14 2
f 13 2 1
f 15 2 14
f 15 3 2
f 16 3 15
f 16 4 3
f 13 18 14
f 18 13 17
f 14 19 15
f 19 14 18
f 15 20 16
f 20 15 19
f 5 21 1
f 21 5 23
f 23 22 21
f 22 23 24
f 24 4 22
f 4 24 8
f 9 23 5
f 23 9 25
f 25 24 23
f 24 25 26
f 26 8 24
f 8 26 12
f 21 27 13
f 1 21 13
f 27 21 28
f 21 22 28
f 28 22 16
f 22 4 16
f 29 13 27
f 13 29 17
f 30 27 28
f 27 30 29
f 20 28 16
f 28 20 30
f 10 31 9
f 31 10 32
f 11 32 10
f 32 11 33
f 12 33 11
f 33 12 34
f 32 35 31
f 35 32 36
f 33 36 32
f 36 33 37
f 34 37 33
f 37 34 38
f 39 40 37
f 39 37 38
f 41 37 40
f 41 36 37
f 41 42 36
f 42 43 35
f 42 35 36
f 39 45 40
f 45 39 44
f 40 46 41
f 46 40 45
f 41 47 42
f 47 41 46
f 42 48 43
f 48 42 47
f 31 25 9
f 25 31 49
f 49 26 25
f 26 49 50
f 50 12 26
f 12 50 34
f 35 49 31
f 49 35 51
f 51 50 49
f 50 51 52
f 52 34 50
f 34 52 38
f 52 53 39
f 38 52 39
f 53 52 54
f 52 51 54
f 51 55 54
f 35 43 55
f 51 35 55
f 56 39 53
f 39 56 44
f 57 53 54
f 53 57 56
f 58 54 55
f 54 58 57
f 48 55 43
f 55 48 58
f 60 63 59
f 63 60 64
f 61 64 60
f 64 61 65
f 62 65 61
f 65 62 66
f 64 67 63
f 67 64 68
f 65 68 64
f 68 65 69
f 66 69 65
f 69 66 70
f 68 71 67
f 71 68 72
f 69 72 68
f 72 69 73
f 70 73 69
f 73 70 74
f 63 75 59
f 75 63 77
f 77 76 75
f 76 77 78
f 78 62 76
f 62 78 66
f 67 77 63
f 77 67 79
f 79 78 77
f 78 79 80
f 80 66 78
f 66 80 70
f 71 79 67
f 79 71 81
f 81 80 79
f 80 81 82
f 82 70 80
f 70 82 74
f 72 83 71
f 83 72 84
f 73 84 72
f 84 73 85
f 74 85 73
f 85 74 86
f 84 87 83
f 87 84 88
f 85 88 84
f 88 85 89
f 86 89 85
f 89 86 90
f 91 88 92
f 91 87 88
f 92 88 93
f 93 89 94
f 93 88 89
f 95 94 89
f 95 89 90
f 96 95 90
f 92 97 91
f 97 92 98
f 93 98 92
f 98 93 99
f 94 99 93
f 99 94 100
f 95 100 94
f 100 95 101
f 96 101 95
f 101 96 102
f 83 81 71
f 81 83 103
f 103 82 81
f 82 103 104
f 104 74 82
f 74 104 86
f 87 103 83
f 103 87 105
f 105 104 103
f 104 105 106
f 106 86 104
f 86 106 90
f 107 105 91
f 105 87 91
f 108 105 107
f 109 106 108
f 106 105 108
f 106 109 110
f 90 106 110
f 90 110 96
f 97 107 91
f 107 97 111
f 111 108 107
f 108 111 112
f 112 109 108
f 109 112 113
f 113 110 109
f 110 113 114
f 114 96 110
f 96 114 102
f 115 117 116
f 115 118 117
f 115 119 118
f 117 120 116
f 120 117 121
f 118 121 117
f 121 118 122
f 119 122 118
f 122 119 123
f 121 124 120
f 124 121 125
f 122 125 121
f 125 122 126
f 123 126 122
f 126 123 127
f 115 128 119
f 115 129 128
f 115 130 129
f 128 123 119
f 123 128 131
f 129 131 128
f 131 129 132
f 130 132 129
f 132 130 133
f 131 127 123
f 127 131 134
f 132 134 131
f 134 132 135
f 133 135 132
f 135 133 136
f 137 138 115
f 138 139 115
f 139 130 115
f 140 138 137
f 138 140 141
f 141 139 138
f 139 141 142
f 142 130 139
f 130 142 133
f 143 141 140
f 141 143 144
f 144 142 141
f 142 144 145
f 145 133 142
f 133 145 136
f 116 146 115
f 146 147 115
f 147 137 115
f 120 146 116
f 146 120 148
f 148 147 146
f 147 148 149
f 149 137 147
f 137 149 140
f 124 148 120
f 148 124 150
f 150 149 148
f 149 150 151
f 151 140 149
f 140 151 143
f 125 152 124
f 152 125 153
f 126 153 125
f 153 126 154
f 127 154 126
f 154 127 155
f 153 156 152
f 156 153 157
f 154 157 153
f 157 154 158
f 155 158 154
f 158 155 159
f 157 160 156
f 160 157 161
f 158 161 157
f 161 158 162
f 159 162 158
f 162 159 163
f 134 155 127
f 155 134 164
f 135 164 134
f 164 135 165
f 136 165 135
f 165 136 166
f 164 159 155
f 159 164 167
f 165 167 164
f 167 165 168
f 166 168 165
f 168 166 169
f 167 163 159
f 163 167 170
f 168 170 167
f 170 168 171
f 169 171 168
f 171 169 172
f 173 144 143
f 144 173 174
f 174 145 144
f 145 174 175
f 175 136 145
f 136 175 166
f 176 174 173
f 174 176 177
f 177 175 174
f 175 177 178
f 178 166 175
f 166 178 169
f 179 177 176
f 177 179 180
f 180 178 177
f 178 180 181
f 181 169 178
f 169 181 172
f 152 150 124
f 150 152 182
f 182 151 150
f 151 182 183
f 183 143 151
f 143 183 173
f 156 182 152
f 182 156 184
f 184 183 182
f 183 184 185
f 185 173 183
f 173 185 176
f 160 184 156
f 184 160 186
f 186 185 184
f 185 186 187
f 187 176 185
f 176 187 179
f 189 192 188
f 192 189 193
f 190 193 189
f 193 190 194
f 191 194 190
f 194 191 195
f 193 196 192
f 196 193 197
f 194 197 193
f 197 194 198
f 195 198 194
f 198 195 199
f 197 200 196
f 200 197 201
f 198 201 197
f 201 198 202
f 199 202 198
f 202 199 203
f 204 195 191
f 195 204 207
f 205 207 204
f 207 205 208
f 206 208 205
f 208 206 209
f 207 199 195
f 199 207 210
f 208 210 207
f 210 208 211
f 209 211 208
f 211 209 212
f 210 203 199
f 203 210 213
f 211 213 210
f 213 211 214
f 212 214 211
f 214 212 215
f 219 217 216
f 217 219 220
f 220 218 217
f 218 220 221
f 221 206 218
f 206 221 209
f 222 220 219
f 220 222 223
f 223 221 220
f 221 223 224
f 224 209 221
f 209 224 212
f 225 223 222
f 223 225 226
f 226 224 223
f 224 226 227
f 227 212 224
f 212 227 215
f 192 228 188
f 228 192 230
f 230 229 228
f 229 230 231
f 231 216 229
f 216 231 219
f 196 230 192
f 230 196 232
f 232 231 230
f 231 232 233
f 233 219 231
f 219 233 222
f 200 232 196
f 232 200 234
f 234 233 232
f 233 234 235
f 235 222 233
f 222 235 225
f 202 237 201
f 237 202 238
f 203 238 202
f 238 203 239
f 237 240 236
f 240 237 241
f 238 241 237
f 241 238 242
f 239 242 238
f 242 239 243
f 242 244 241
f 244 242 245
f 243 245 242
f 245 243 246
f 18 17 200
f 18 200 201
f 18 237 19
f 18 201 237
f 20 19 237
f 20 237 236
f 45 44 240
f 45 240 241
f 45 241 244
f 45 244 46
f 213 239 203
f 239 213 247
f 214 247 213
f 247 214 248
f 215 248 214
f 248 215 249
f 247 243 239
f 243 247 250
f 248 250 247
f 250 248 251
f 250 246 243
f 246 250 252
f 251 252 250
f 252 251 253
f 98 249 97
f 98 248 249
f 98 251 248
f 99 251 98
f 99 100 253
f 99 253 251
f 100 101 253
f 254 226 225
f 226 254 255
f 255 227 226
f 227 255 256
f 256 215 227
f 215 256 249
f 257 255 254
f 255 257 258
f 258 256 255
f 256 258 259
f 260 258 257
f 258 260 261
f 261 259 258
f 259 261 262
f 97 249 111
f 249 256 111
f 256 259 111
f 111 259 112
f 262 113 112
f 259 262 112
f 262 114 113
f 263 235 234
f 235 263 264
f 264 225 235
f 225 264 254
f 240 263 236
f 263 240 265
f 265 264 263
f 264 265 266
f 266 254 264
f 254 266 257
f 267 266 265
f 266 267 268
f 268 257 266
f 257 268 260
f 200 17 29
f 234 200 29
f 30 263 29
f 263 234 29
f 263 30 20
f 236 263 20
f 240 44 56
f 265 240 56
f 267 265 56
f 57 267 56
f 245 270 244
f 270 245 271
f 246 271 245
f 271 246 272
f 270 273 269
f 273 270 274
f 271 274 270
f 274 271 275
f 272 275 271
f 275 272 276
f 274 277 273
f 277 274 278
f 275 278 274
f 278 275 279
f 276 279 275
f 279 276 280
f 47 46 244
f 47 244 270
f 47 269 48
f 47 270 269
f 252 272 246
f 272 252 281
f 253 281 252
f 281 253 282
f 281 276 272
f 276 281 284
f 282 284 281
f 284 282 285
f 283 285 282
f 285 283 286
f 284 280 276
f 280 284 287
f 285 287 284
f 287 285 288
f 286 288 285
f 288 286 289
f 101 102 283
f 101 283 282
f 101 282 253
f 290 261 260
f 261 290 291
f 291 262 261
f 262 291 292
f 293 291 290
f 291 293 294
f 294 292 291
f 292 294 295
f 295 283 292
f 283 295 286
f 296 294 293
f 294 296 297
f 297 295 294
f 295 297 298
f 298 286 295
f 286 298 289
f 283 102 114
f 292 283 114
f 262 292 114
f 299 268 267
f 268 299 300
f 300 260 268
f 260 300 290
f 273 299 269
f 299 273 301
f 301 300 299
f 300 301 302
f 302 290 300
f 290 302 293
f 277 301 273
f 301 277 303
f 303 302 301
f 302 303 304
f 304 293 302
f 293 304 296
f 267 57 58
f 299 267 58
f 48 269 58
f 269 299 58
f 278 305 277
f 305 278 306
f 279 306 278
f 306 279 307
f 280 307 279
f 307 280 308
f 306 309 305
f 309 306 310
f 307 310 306
f 310 307 311
f 308 311 307
f 311 308 312
f 310 313 309
f 311 313 310
f 312 313 311
f 287 308 280
f 308 287 314
f 288 314 287
f 314 288 315
f 289 315 288
f 315 289 316
f 314 312 308
f 312 314 317
f 315 317 314
f 317 315 318
f 316 318 315
f 318 316 319
f 317 313 312
f 318 313 317
f 319 313 318
f 320 297 296
f 297 320 321
f 321 298 297
f 298 321 322
f 322 289 298
f 289 322 316
f 323 321 320
f 321 323 324
f 324 322 321
f 322 324 325
f 325 316 322
f 316 325 319
f 323 313 324
f 324 313 325
f 325 313 319
f 305 303 277
f 303 305 326
f 326 304 303
f 304 326 327
f 327 296 304
f 296 327 320
f 309 326 305
f 326 309 328
f 328 327 326
f 327 328 329
f 329 320 327
f 320 329 323
f 309 313 328
f 328 313 329
f 329 313 323
f 331 334 330
f 334 331 335
f 332 335 331
f 335 332 336
f 333 336 332
f 336 333 337
f 335 59 334
f 59 335 60
f 336 60 335
f 60 336 61
f 337 61 336
f 61 337 62
f 340 341 331
f 340 331 330
f 341 342 331
f 342 343 332
f 342 332 331
f 344 332 343
f 344 333 332
f 345 333 344
f 340 347 341
f 347 340 346
f 341 348 342
f 348 341 347
f 342 349 343
f 349 342 348
f 343 350 344
f 350 343 349
f 344 351 345
f 351 344 350
f 334 352 330
f 352 334 354
f 354 353 352
f 353 354 355
f 355 333 353
f 333 355 337
f 338 354 334
f 354 338 356
f 356 355 354
f 355 356 357
f 357 337 355
f 337 357 339
f 352 358 340
f 330 352 340
f 352 359 358
f 353 360 359
f 352 353 359
f 360 353 361
f 353 333 361
f 361 333 345
f 362 340 358
f 340 362 346
f 363 358 359
f 358 363 362
f 364 359 360
f 359 364 363
f 365 360 361
f 360 365 364
f 351 361 345
f 361 351 365
f 366 368 367
f 366 369 368
f 366 370 369
f 368 371 367
f 371 368 372
f 369 372 368
f 372 369 373
f 370 373 369
f 373 370 374
f 372 375 371
f 375 372 376
f 373 376 372
f 376 373 377
f 374 377 373
f 377 374 378
f 366 379 370
f 366 380 379
f 366 381 380
f 379 374 370
f 374 379 382
f 380 382 379
f 382 380 383
f 381 383 380
f 383 381 384
f 382 378 374
f 378 382 385
f 383 385 382
f 385 383 386
f 384 386 383
f 386 384 387
f 388 389 366
f 389 390 366
f 390 381 366
f 391 389 388
f 389 391 392
f 392 390 389
f 390 392 393
f 393 381 390
f 381 393 384
f 394 392 391
f 392 394 395
f 395 393 392
f 393 395 396
f 396 384 393
f 384 396 387
f 367 397 366
f 397 398 366
f 398 388 366
f 371 397 367
f 397 371 399
f 399 398 397
f 398 399 400
f 400 388 398
f 388 400 391
f 375 399 371
f 399 375 401
f 401 400 399
f 400 401 402
f 402 391 400
f 391 402 394
f 376 403 375
f 403 376 404
f 377 404 376
f 404 377 405
f 378 405 377
f 405 378 406
f 404 407 403
f 407 404 408
f 405 408 404
f 408 405 409
f 406 409 405
f 409 406 410
f 408 411 407
f 411 408 412
f 409 412 408
f 412 409 413
f 410 413 409
f 413 410 414
f 385 406 378
f 406 385 415
f 386 415 385
f 415 386 416
f 387 416 386
f 416 387 417
f 415 410 406
f 410 415 418
f 416 418 415
f 418 416 419
f 417 419 416
f 419 417 420
f 418 414 410
f 414 418 421
f 419 421 418
f 421 419 422
f 350 420 351
f 350 419 420
f 350 422 419
f 423 395 394
f 395 423 424
f 424 396 395
f 396 424 425
f 425 387 396
f 387 425 417
f 426 424 423
f 424 426 427
f 427 425 424
f 425 427 428
f 428 417 425
f 417 428 420
f 429 427 426
f 427 429 430
f 430 428 427
f 428 430 431
f 351 420 365
f 420 428 365
f 428 431 365
f 403 401 375
f 401 403 432
f 432 402 401
f 402 432 433
f 433 394 402
f 394 433 423
f 407 432 403
f 432 407 434
f 434 433 432
f 433 434 435
f 435 423 433
f 423 435 426
f 411 434 407
f 434 411 436
f 436 435 434
f 435 436 437
f 437 426 435
f 426 437 429
f 412 438 411
f 438 412 439
f 413 439 412
f 439 413 440
f 414 440 413
f 440 414 441
f 439 442 438
f 442 439 443
f 440 443 439
f 443 440 444
f 441 444 440
f 444 441 445
f 443 446 442
f 446 443 447
f 444 447 443
f 447 444 448
f 445 448 444
f 448 445 449
f 421 441 414
f 441 421 450
f 422 450 421
f 450 422 451
f 450 445 441
f 445 450 452
f 451 452 450
f 452 451 453
f 452 449 445
f 449 452 455
f 453 455 452
f 455 453 456
f 454 456 453
f 456 454 457
f 347 346 454
f 347 454 453
f 347 453 451
f 348 347 451
f 348 451 422
f 349 348 422
f 349 422 350
f 458 430 429
f 430 458 459
f 459 431 430
f 431 459 460
f 461 459 458
f 459 461 462
f 462 460 459
f 460 462 463
f 464 462 461
f 462 464 465
f 465 463 462
f 463 465 466
f 466 454 463
f 454 466 457
f 454 346 362
f 463 454 362
f 460 463 362
f 460 362 363
f 431 460 363
f 431 363 364
f 365 431 364
f 438 436 411
f 436 438 467
f 467 437 436
f 437 467 468
f 468 429 437
f 429 468 458
f 442 467 438
f 467 442 469
f 469 468 467
f 468 469 470
f 470 458 468
f 458 470 461
f 446 469 442
f 469 446 471
f 471 470 469
f 470 471 472
f 472 461 470
f 461 472 464
f 447 473 446
f 473 447 474
f 448 474 447
f 474 448 475
f 449 475 448
f 475 449 476
f 474 477 473
f 477 474 478
f 475 478 474
f 478 475 479
f 476 479 475
f 479 476 480
f 478 481 477
f 481 478 482
f 479 482 478
f 482 479 483
f 480 483 479
f 483 480 484
f 455 476 449
f 476 455 485
f 456 485 455
f 485 456 486
f 457 486 456
f 486 457 487
f 485 480 476
f 480 485 488
f 486 488 485
f 488 486 489
f 487 489 486
f 489 487 490
f 488 484 480
f 484 488 491
f 489 491 488
f 491 489 492
f 490 492 489
f 492 490 493
f 494 465 464
f 465 494 495
f 495 466 465
f 466 495 496
f 496 457 466
f 457 496 487
f 497 495 494
f 495 497 498
f 498 496 495
f 496 498 499
f 499 487 496
f 487 499 490
f 500 498 497
f 498 500 501
f 501 499 498
f 499 501 502
f 502 490 499
f 490 502 493
f 473 471 446
f 471 473 503
f 503 472 471
f 472 503 504
f 504 464 472
f 464 504 494
f 477 503 473
f 503 477 505
f 505 504 503
f 504 505 506
f 506 494 504
f 494 506 497
f 481 505 477
f 505 481 507
f 507 506 505
f 506 507 508
f 508 497 506
f 497 508 500
f 482 509 481
f 509 482 510
f 483 510 482
f 510 483 511
f 484 511 483
f 511 484 512
f 510 513 509
f 513 510 514
f 511 514 510
f 514 511 515
f 512 515 511
f 515 512 516
f 514 188 513
f 188 514 189
f 515 189 514
f 189 515 190
f 516 190 515
f 190 516 191
f 491 512 484
f 512 491 517
f 492 517 491
f 517 492 518
f 493 518 492
f 518 493 519
f 517 516 512
f 516 517 520
f 518 520 517
f 520 518 521
f 519 521 518
f 521 519 522
f 520 191 516
f 191 520 204
f 521 204 520
f 204 521 205
f 522 205 521
f 205 522 206
f 523 501 500
f 501 523 524
f 524 502 501
f 502 524 525
f 525 493 502
f 493 525 519
f 526 524 523
f 524 526 527
f 527 525 524
f 525 527 528
f 528 519 525
f 519 528 522
f 216 527 526
f 527 216 217
f 217 528 527
f 528 217 218
f 218 522 528
f 522 218 206
f 509 507 481
f 507 509 529
f 529 508 507
f 508 529 530
f 530 500 508
f 500 530 523
f 513 529 509
f 529 513 531
f 531 530 529
f 530 531 532
f 532 523 530
f 523 532 526
f 188 531 513
f 531 188 228
f 228 532 531
f 532 228 229
f 229 526 532
f 526 229 216
f 161 533 160
f 533 161 534
f 162 534 161
f 534 162 535
f 163 535 162
f 535 163 536
f 534 537 533
f 537 534 538
f 535 538 534
f 538 535 539
f 536 539 535
f 539 536 540
f 538 541 537
f 541 538 542
f 539 542 538
f 542 539 543
f 540 543 539
f 543 540 544
f 170 536 163
f 536 170 545
f 171 545 170
f 545 171 546
f 172 546 171
f 546 172 547
f 545 540 536
f 540 545 548
f 546 548 545
f 548 546 549
f 547 549 546
f 549 547 550
f 548 544 540
f 544 548 551
f 549 551 548
f 551 549 552
f 550 552 549
f 552 550 553
f 554 180 179
f 180 554 555
f 555 181 180
f 181 555 556
f 556 172 181
f 172 556 547
f 557 555 554
f 555 557 558
f 558 556 555
f 556 558 559
f 559 547 556
f 547 559 550
f 560 558 557
f 558 560 561
f 561 559 558
f 559 561 562
f 562 550 559
f 550 562 553
f 533 186 160
f 186 533 563
f 563 187 186
f 187 563 564
f 564 179 187
f 179 564 554
f 537 563 533
f 563 537 565
f 565 564 563
f 564 565 566
f 566 554 564
f 554 566 557
f 541 565 537
f 565 541 567
f 567 566 565
f 566 567 568
f 568 557 566
f 557 568 560
f 542 569 541
f 569 542 570
f 543 570 542
f 570 543 571
f 544 571 543
f 571 544 572
f 570 573 569
f 573 570 574
f 571 574 570
f 574 571 575
f 572 575 571
f 575 572 576
f 574 577 573
f 577 574 578
f 575 578 574
f 578 575 579
f 576 579 575
f 579 576 580
f 551 572 544
f 572 551 581
f 552 581 551
f 581 552 582
f 553 582 552
f 582 553 583
f 581 576 572
f 576 581 584
f 582 584 581
f 584 582 585
f 583 585 582
f 585 583 586
f 584 580 576
f 580 584 587
f 585 587 584
f 587 585 588
f 586 588 585
f 588 586 589
f 590 561 560
f 561 590 591
f 591 562 561
f 562 591 592
f 592 553 562
f 553 592 583
f 593 591 590
f 591 593 594
f 594 592 591
f 592 594 595
f 595 583 592
f 583 595 586
f 596 594 593
f 594 596 597
f 597 595 594
f 595 597 598
f 598 586 595
f 586 598 589
f 569 567 541
f 567 569 599
f 599 568 567
f 568 599 600
f 600 560 568
f 560 600 590
f 573 599 569
f 599 573 601
f 601 600 599
f 600 601 602
f 602 590 600
f 590 602 593
f 577 601 573
f 601 577 603
f 603 602 601
f 602 603 604
f 604 593 602
f 593 604 596
f 578 605 577
f 605 578 606
f 579 606 578
f 606 579 607
f 580 607 579
f 607 580 608
f 606 609 605
f 609 606 610
f 607 610 606
f 610 607 611
f 608 611 607
f 611 608 612
f 610 613 609
f 611 613 610
f 612 613 611
f 587 608 580
f 608 587 614
f 588 614 587
f 614 588 615
f 589 615 588
f 615 589 616
f 614 612 608
f 612 614 617
f 615 617 614
f 617 615 618
f 616 618 615
f 618 616 619
f 617 613 612
f 618 613 617
f 619 613 618
f 620 597 596
f 597 620 621
f 621 598 597
f 598 621 622
f 622 589 598
f 589 622 616
f 623 621 620
f 621 623 624
f 624 622 621
f 622 624 625
f 625 616 622
f 616 625 619
f 623 613 624
f 624 613 625
f 625 613 619
f 605 603 577
f 603 605 626
f 626 604 603
f 604 626 627
f 627 596 604
f 596 627 620
f 609 626 605
f 626 609 628
f 628 627 626
f 627 628 629
f 629 620 627
f 620 629 623
f 609 613 628
f 628 613 629
f 629 613 623